<?xml version="1.0" encoding="utf-8"?>
<!-- Generator: Adobe Illustrator 24.1.2, SVG Export Plug-In . SVG Version: 6.00 Build 0)  -->
<svg version="1.1" id="Layer_1" xmlns="http://www.w3.org/2000/svg" xmlns:xlink="http://www.w3.org/1999/xlink" x="0px" y="0px"
	 viewBox="0 0 1366 768" style="enable-background:new 0 0 1366 768;" xml:space="preserve">
<style type="text/css">
	.st0{font-family:'MyriadPro-Regular';}
	.st1{font-size:445.2733px;}
	.st2{font-size:293.4541px;}
</style>
<g>
	<text transform="matrix(1 0 0 1 524.1681 505.1818)" class="st0 st1">B</text>
	<text transform="matrix(1.5481 0 0 1 482.3868 505.2228)" class="st0 st1">L</text>
	<path d="M682,501v0.14c0,48.64-30.06,67.38-71.04,67.38c-23.52,0-43.66-5.32-58.11-11.88c-3.57-1.62-7.8,0.04-9.15,3.66
		l-5.42,14.46c-1.19,3.17,0.28,6.68,3.38,8.16c17.91,8.55,44.04,13.11,67.94,13.11c27.78,0,58.75-5.58,80.15-23.12
		c18.66-14.6,28.65-37.08,30.92-71.91H682z"/>
	<text transform="matrix(1.3669 0 0 1 486.088 491.966)" class="st0 st2">o</text>
	<text transform="matrix(1.3669 0 0 1 780.9069 501.3781)" class="st0 st2">.</text>
</g>
</svg>
